<svg viewBox="0 0 40 32" xmlns="http://www.w3.org/2000/svg"><g fill="#ccc"><path d="m30.3 6h-8v-4c0-1.1-.9-2-2-2s-2 .9-2 2v4h-8c-2.2 0-4 1.8-4 4v18c0 2.2 1.8 4 4 4h20c2.2 0 4-1.8 4-4v-18c0-2.2-1.8-4-4-4zm-16.5 20.8h-2c-1.1 0-2-.9-2-2s.9-2 2-2h2c1.1 0 2 .9 2 2s-.9 2-2 2zm.5-9.8c-1.7 0-3-1.3-3-3s1.3-3 3-3 3 1.3 3 3-1.3 3-3 3zm7 9.8h-2c-1.1 0-2-.9-2-2s.9-2 2-2h2c1.1 0 2 .9 2 2s-.9 2-2 2zm2-12.8c0-1.7 1.3-3 3-3s3 1.3 3 3-1.3 3-3 3-3-1.3-3-3zm5.5 12.8h-2c-1.1 0-2-.9-2-2s.9-2 2-2h2c1.1 0 2 .9 2 2s-.9 2-2 2z"/><path d="m38 24c-1.1 0-2-.9-2-2v-6c0-1.1.9-2 2-2s2 .9 2 2v6c0 1.1-.9 2-2 2z"/><path d="m2 24c-1.1 0-2-.9-2-2v-6c0-1.1.9-2 2-2s2 .9 2 2v6c0 1.1-.9 2-2 2z"/></g></svg>