<?xml version="1.0" encoding="UTF-8"?>
<svg id="robot" xmlns="http://www.w3.org/2000/svg" version="1.1" viewBox="0 0 40 32">
  <!-- Generator: Adobe Illustrator 29.1.0, SVG Export Plug-In . SVG Version: 2.1.0 Build 142)  -->
  <defs>
    <style>
      .st0 {
        fill: #ccc;
      }
    </style>
  </defs>
  <path class="st0" d="M30.3,6h-8V2c0-1.1-.9-2-2-2s-2,.9-2,2v4h-8c-2.2,0-4,1.8-4,4v18c0,2.2,1.8,4,4,4h20c2.2,0,4-1.8,4-4V10c0-2.2-1.8-4-4-4ZM13.8,26.8h-2c-1.1,0-2-.9-2-2s.9-2,2-2h2c1.1,0,2,.9,2,2s-.9,2-2,2ZM14.3,17c-1.7,0-3-1.3-3-3s1.3-3,3-3,3,1.3,3,3-1.3,3-3,3ZM21.3,26.8h-2c-1.1,0-2-.9-2-2s.9-2,2-2h2c1.1,0,2,.9,2,2s-.9,2-2,2ZM23.3,14c0-1.7,1.3-3,3-3s3,1.3,3,3-1.3,3-3,3-3-1.3-3-3ZM28.8,26.8h-2c-1.1,0-2-.9-2-2s.9-2,2-2h2c1.1,0,2,.9,2,2s-.9,2-2,2Z"/>
  <path class="st0" d="M38,24c-1.1,0-2-.9-2-2v-6c0-1.1.9-2,2-2s2,.9,2,2v6c0,1.1-.9,2-2,2Z"/>
  <path class="st0" d="M2,24c-1.1,0-2-.9-2-2v-6c0-1.1.9-2,2-2s2,.9,2,2v6c0,1.1-.9,2-2,2Z"/>
</svg>