<?xml version="1.0" encoding="UTF-8"?>
<svg id="Layer_1" xmlns="http://www.w3.org/2000/svg" version="1.1" viewBox="0 0 935.4 935.4">
  <!-- Generator: Adobe Illustrator 29.1.0, SVG Export Plug-In . SVG Version: 2.1.0 Build 142)  -->
  <defs>
    <style>
      .st0 {
        fill: #ffd461;
      }

      .st1 {
        fill: #b277b1;
      }

      .st2 {
        fill: #ff1742;
      }

      .st3 {
        fill: #4ebbba;
      }

      .st4 {
        fill: #494949;
      }

      .st5 {
        fill: #66557b;
      }

      .st6 {
        fill: #ededed;
      }

      .st7 {
        fill: #616160;
      }
    </style>
  </defs>
  <path class="st4" d="M507.6,651.8h.1c-16,5.4-36.5-21.6-39.3-41.6-3.9,16.7-13,40.1-31.9,43.3-15,2.5-29.1-5.7-31.3-21.3-2.8-21,14.7-43.1,25.6-60.1,11.2-17.5,22.5-31.7,36.7-46.3,1-1,2.2-2.2,3.7-2.2s3.2,1.4,4.3,2.8c18.8,22.5,87.5,106.3,32.1,125.4Z"/>
  <path class="st5" d="M213.1,893.6l.7.3c1.1.5,3.7,1.1-.7-.3Z"/>
  <path class="st6" d="M870.5,347.9h0C823.9,153.6,645.2,15.1,427.3,45.1c-103.8,14.2-198.2,63-273,144.2-59.7,64.9-97.4,157.8-101.1,246.3-3.4,82.6,6.2,159.4,66.3,220.5,40.6,41.3,128.3,73.7,194.7,71.9-4.9,13-11.3,30-15.8,47.3-.7,3-1.5,6.1-2.2,9.1-4.9,22.4-5.6,44.5,5.2,58.8,10.2,13.5,26.3,21,42.3,26.4,49.6,16.7,102.9,21.1,154.9,19.5,44.3-1.4,108.5,0,143.3-31.6,13.8-12.5,14-37.1,10.1-61.2-.5-3.1-1-6.2-1.7-9.2-6.1-30-16.9-56.9-14.3-56.8,101.5,4.7,188.6-65.2,215.7-125,34.7-76.4,39.7-170.2,18.8-257.4ZM507.6,651.8h.1c-16,5.4-36.5-21.6-39.3-41.6-3.9,16.7-13,40.1-31.9,43.3-15,2.5-29.1-5.7-31.3-21.3-2.8-21,14.7-43.1,25.6-60.1,11.2-17.5,22.5-31.7,36.7-46.3,1-1,2.2-2.2,3.7-2.2s3.2,1.4,4.3,2.8c18.8,22.5,87.5,106.3,32.1,125.4ZM349,549.6c-20.2,28.9-55.8,49.8-92.3,47.7-27.9-1.5-57.1-14.5-73.5-35.8-9.5-12.2-14.6-26.2-16.6-41-6.3-48.4,22.7-105.3,54.8-135.6,28.8-27.2,76.8-37,113.3-14.9,27.5,16.7,37.5,49.9,39.1,80.8,1.8,34.2-4.7,69.8-24.9,98.7h0ZM769.2,520.7c-2,14.8-7.1,28.7-16.6,41-16.4,21.2-45.6,34.3-73.5,35.8-36.5,2-72.1-18.9-92.3-47.7-20.2-28.9-26.7-64.6-24.9-98.7,1.6-30.8,11.6-64.1,39.1-80.8,36.5-22.1,84.4-12.4,113.3,14.9,32.1,30.3,61.1,87.2,54.8,135.6h.1Z"/>
  <path class="st1" d="M383.1,416.5c19.1-31.4-25.3-48.1-47-29.4,3.5-8.6,7.1-17.8,5.4-27-1.5-8.3-7.7-15.6-15.6-18.5-17.7-6.6-30.9,10.6-36.8,25.4-.4-9.5-4.3-21.6-10.9-28-23.3-22.8-45.3,13-32,38.6-4.6-9.5-13.5-17.5-24-19.1s-22.2,4.2-25.6,14.3c-4.1,12.1,3.8,24.6,11.4,34.8-11.2-4.5-25.1-8.7-34.6-1.2-7.4,5.7-9,16.8-5.7,25.6,3.3,8.8,10.6,15.5,18.3,20.9-12.1-3.3-34,.2-36.4,15.7-2.4,15.1,5.4,26.4,24.5,30.3-11.8,2.2-21.8,12.1-24.1,23.9-.7,3.3-.7,6.7.4,10,3.7,11.4,18,14.7,29.9,16.1-6.5,7.5-10.5,17.1-11.1,27-.4,5,.2,10.2,2.8,14.5,4.5,7.2,14.2,9.8,22.6,8.1,8.3-1.7,15.5-6.8,22.1-12.3-4.3,9.2-3.3,20.8,2.7,29,2.7,3.7,6.4,6.8,10.8,8,7.7,2.2,16.1-1.9,21.2-7.9,5.2-6.1,7.9-13.9,10.3-21.4-1.9,15.1,15,36,31,27.8,5.7-3,9.4-6.9,10.4-13,1-5.7,4.2-12.6,2.5-18.5,2.7,9.4,12.7,15.7,22.5,14.8,9.6-.9,18.2-8.8,20.2-18.3,2.2-9.5-2-19.9-9.6-25.9,5.2,3.3,10.5,6.6,16.5,8s12.9.5,17.2-3.8c5.2-5.2,5.3-14,2.2-20.8-3.1-6.7-8.8-11.9-14.3-16.8,3,2.6,10.2.4,13.6,0,5.8-.6,11-1.5,15.8-5.2,4.5-3.5,7.6-8.8,8-14.4.7-8.6-5-15.2-12.2-19.1-4.7-2.5-12.7-8.3-18.3-8,14-.8,29.6-2.4,38.8-12.9,13.7-15.4-4.4-28.4-19-31.4-8.2-1.8-16.8-1.5-25.3-1.3,7.4-.2,17.9-12.7,21.2-18.3l.2-.4h0Z"/>
  <path class="st7" d="M166.8,520.7c2,14.8,7.1,28.7,16.6,41,16.4,21.2,45.6,34.3,73.5,35.8,36.5,2,72.1-18.9,92.3-47.7s26.7-64.6,24.9-98.7c-1.6-30.8-11.6-64.1-39.1-80.8-36.5-22.1-84.4-12.4-113.3,14.9-32.1,30.3-61.1,87.2-54.8,135.6h0Z"/>
  <path class="st1" d="M554.4,411c-19.1-31.4,25.3-48.1,47-29.4-3.5-8.6-7.1-17.8-5.4-27,1.5-8.3,7.7-15.6,15.6-18.5,17.7-6.6,30.9,10.6,36.8,25.4.4-9.5,4.3-21.6,10.9-28,23.3-22.8,45.3,13,32,38.6,4.6-9.5,13.5-17.5,24-19.1s22.2,4.2,25.6,14.3c4.1,12.1-3.8,24.6-11.4,34.8,11.2-4.5,25.1-8.7,34.6-1.2,7.4,5.7,9,16.8,5.7,25.6-3.3,8.8-10.6,15.5-18.3,20.9,12.1-3.3,34,.2,36.4,15.7,2.4,15.1-5.4,26.4-24.5,30.3,11.8,2.2,21.8,12.1,24.1,23.9.7,3.3.7,6.7-.4,10-3.7,11.4-18,14.7-29.9,16.1,6.5,7.5,10.5,17.1,11.1,27,.4,5-.2,10.2-2.8,14.5-4.5,7.2-14.2,9.8-22.6,8.1-8.3-1.7-15.5-6.8-22.1-12.3,4.3,9.2,3.3,20.8-2.7,29-2.7,3.7-6.4,6.8-10.8,8-7.7,2.2-16.1-1.9-21.2-7.9-5.2-6.1-7.9-13.9-10.3-21.4,1.9,15.1-15,36-31,27.8-5.7-3-9.4-6.9-10.4-13-1-5.7-4.2-12.6-2.5-18.5-2.7,9.4-12.7,15.7-22.5,14.8-9.6-.9-18.2-8.8-20.2-18.3-2.2-9.5,2-19.9,9.6-25.9-5.2,3.3-10.5,6.6-16.5,8s-12.9.5-17.2-3.8-5.3-14-2.2-20.8,8.8-11.9,14.3-16.8c-3,2.6-10.2.4-13.6,0-5.8-.6-11-1.5-15.8-5.2-4.5-3.5-7.6-8.8-8-14.4-.7-8.6,5-15.2,12.2-19.1,4.7-2.5,12.7-8.3,18.3-8-14-.8-29.6-2.4-38.8-12.9-13.7-15.4,4.4-28.4,19-31.4,8.2-1.8,16.8-1.5,25.3-1.3-7.4-.2-17.9-12.7-21.2-18.3l-.2-.4h0Z"/>
  <path class="st7" d="M769.2,520.7c-2,14.8-7.1,28.7-16.6,41-16.4,21.2-45.6,34.3-73.5,35.8-36.5,2-72.1-18.9-92.3-47.7-20.2-28.9-26.7-64.6-24.9-98.7,1.6-30.8,11.6-64.1,39.1-80.8,36.5-22.1,84.4-12.4,113.3,14.9,32.1,30.3,61.1,87.2,54.8,135.6h.1Z"/>
  <path class="st2" d="M528.6,307.2c-2.2-15.3-17.4-27.9-33.2-24.4-10.7,2.3-21.2,8.7-27,21.3-12.2-21.8-39.5-27-55.3-8.9-19.5,22.3,8.5,57,23,73.9,6.6,7.8,20.6,22.6,25.8,22.6,7.9,0,15.1-7.9,20.4-12.4,8.9-7.7,17.4-15.9,24.7-25.1,10-12.5,22.7-27.3,21.9-44.5,0-.9,0-1.8-.3-2.7v.2Z"/>
  <path class="st7" d="M593,806.6c19.7-2.2,39.5-5.7,59-10.4-.5-3.1-1-6.2-1.7-9.2-19.1,4.7-38.5,8-57.8,10.2-1.4-19.3-4.1-38.5-8-57.4-.6-2.5-3-4.1-5.5-3.7-2.5.6-4.1,3-3.7,5.5,3.9,18.6,6.6,37.5,7.9,56.4h0c-23.3,2.3-46.6,3.2-69.5,3h0c-.6-18.1-2.5-36-7.5-53.6-.7-2.4-3.3-3.9-5.7-3.2-2.4.7-3.9,3.3-3.2,5.7,4.7,16.6,6.6,33.7,7.1,51-28-.5-55.3-2.3-81.5-4.7h0c1.4-18.3,4.2-37.3,8.2-54.6.6-2.5-.9-5-3.5-5.6-2.5-.6-5,.9-5.6,3.5-4.2,18-7.1,37.3-8.5,55.9-1.4,0-2.8-.3-4.3-.4-17.4-1.7-36.2-3.7-55.3-6.9,1.9-15.9,4.7-31.7,8.5-47.4.7-2.5-.9-5.1-3.4-5.6-2.4-.7-5.1.9-5.6,3.4-3.9,15.8-6.7,31.8-8.7,47.9h0c-15.4-2.9-31.1-6.6-46.2-11.4-.7,3-1.5,6.1-2.2,9.1,15.7,5.1,31.7,8.7,47.5,11.5-1.4,15.3-2.1,30.7-1.7,46.1,0,2.5,2.2,4.6,4.7,4.6h0c2.5,0,4.6-2.2,4.6-4.8-.4-14.8.2-29.6,1.6-44.3,19.2,3.2,37.9,5.2,55.4,6.9,1.5,0,3,.3,4.6.4-.9,18.7-.4,36.5,1.9,51,.4,2.3,2.3,3.9,4.6,3.9h.7c2.5-.5,4.3-2.8,3.8-5.3-2.2-13.7-2.6-30.6-1.8-48.7h0c26.4,2.4,54,4.3,82.4,4.8h0c0,12.2-.3,24.3-.7,36.4l-.3,8c0,2.5,2,4.7,4.5,4.8h.2c2.5,0,4.6-2,4.7-4.5l.3-8c.4-12.1.7-24.3.7-36.6h4.5c21.6,0,43.5-.9,65.4-3.1.7,14.7.7,29.4,0,44.1,0,2.5,1.9,4.8,4.4,4.9h.3c2.4,0,4.5-2,4.7-4.4.7-15.2.7-30.3,0-45.5h0l-.3.2h0Z"/>
  <path class="st0" d="M723,247.6c2.4-2.3,5.3-4.2,8.5-5,3.3-.7,6.9,0,9.4,2.2,3.5,3.3,3.5,8.8,2.4,13.5-3.6,16.1-19.3,32.6-34.1,42.5-1.3-13.5.5-40.7,13.8-53.3h0Z"/>
  <path class="st0" d="M761,282.1c3.3.7,6.5,2,9,4.2,2.4,2.2,4,5.7,3.5,9-.7,4.7-5.3,7.9-9.8,9.6-15.4,6.1-37.8,2.4-54.3-4.1,10.4-8.7,33.9-22.6,51.7-18.7h-.1Z"/>
  <path class="st0" d="M692.4,248.4c-2.5-2.2-5.5-3.9-8.8-4.5s-6.9.3-9.3,2.7c-3.3,3.5-2.9,9-1.6,13.7,4.5,15.8,21.2,31.4,36.6,40.4.5-13.6-2.9-40.6-16.8-52.3h-.1Z"/>
  <path class="st0" d="M212.4,247.6c-2.4-2.3-5.3-4.2-8.5-5-3.3-.7-6.9,0-9.4,2.2-3.5,3.3-3.5,8.8-2.4,13.5,3.6,16.1,19.3,32.6,34.1,42.5,1.3-13.5-.5-40.7-13.8-53.3h0Z"/>
  <path class="st0" d="M174.5,282.1c-3.3.7-6.5,2-9,4.2-2.4,2.2-4,5.7-3.5,9,.7,4.7,5.3,7.9,9.8,9.6,15.4,6.1,37.8,2.4,54.3-4.1-10.4-8.7-33.9-22.6-51.7-18.7h0Z"/>
  <path class="st0" d="M243.1,248.4c2.5-2.2,5.5-3.9,8.8-4.5s6.9.3,9.3,2.7c3.3,3.5,2.9,9,1.6,13.7-4.5,15.8-21.2,31.4-36.6,40.4-.5-13.6,2.9-40.6,16.8-52.3h0Z"/>
  <path class="st0" d="M667.4,651.5c1.4,6.1-2.4,12.1-8.5,13.5s-12.1-2.4-13.5-8.5,2.4-12.1,8.5-13.5,12.1,2.4,13.5,8.5Z"/>
  <path class="st0" d="M771.3,633.5c1.4,6.1-2.4,12.1-8.5,13.5s-12.1-2.4-13.5-8.5,2.4-12.1,8.5-13.5,12.1,2.4,13.5,8.5Z"/>
  <path class="st3" d="M723.9,656.6c1.7,7.4-2.9,14.7-10.3,16.4-7.4,1.7-14.7-2.9-16.4-10.3-1.7-7.4,2.9-14.7,10.3-16.4s14.7,2.9,16.4,10.3Z"/>
  <path class="st0" d="M272.4,651.5c-1.4,6.1,2.4,12.1,8.5,13.5s12.1-2.4,13.5-8.5-2.4-12.1-8.5-13.5-12.1,2.4-13.5,8.5Z"/>
  <path class="st0" d="M168.4,633.5c-1.4,6.1,2.4,12.1,8.5,13.5s12.1-2.4,13.5-8.5-2.4-12.1-8.5-13.5-12.1,2.4-13.5,8.5Z"/>
  <path class="st3" d="M215.8,656.6c-1.7,7.4,2.9,14.7,10.3,16.4,7.4,1.7,14.7-2.9,16.4-10.3,1.7-7.4-2.9-14.7-10.3-16.4s-14.7,2.9-16.4,10.3Z"/>
</svg>